<?xml version="1.0" standalone="no"?>
<!DOCTYPE svg PUBLIC "-//W3C//DTD SVG 20010904//EN"
 "http://www.w3.org/TR/2001/REC-SVG-20010904/DTD/svg10.dtd">
<svg version="1.0" xmlns="http://www.w3.org/2000/svg"
 width="974.000000pt" height="872.000000pt" viewBox="0 0 974.000000 872.000000"
 preserveAspectRatio="xMidYMid meet">

<g transform="translate(0.000000,872.000000) scale(0.100000,-0.100000)"
fill="#000000" stroke="none">
<path d="M6220 6763 c-14 -2 -53 -13 -87 -23 -34 -11 -97 -22 -140 -26 -43 -4
-88 -14 -100 -21 -13 -9 -70 -19 -135 -24 -97 -9 -117 -13 -138 -33 -33 -31
-83 -56 -112 -56 -13 0 -38 -9 -56 -20 -27 -17 -50 -20 -140 -20 -59 0 -125
-5 -147 -11 -22 -6 -58 -14 -81 -18 -22 -4 -56 -19 -75 -33 -45 -34 -135 -79
-257 -127 -88 -35 -127 -44 -331 -72 -209 -30 -239 -32 -304 -21 -40 6 -94 14
-122 18 -62 9 -115 55 -115 102 0 109 -107 244 -241 306 -88 40 -168 55 -304
57 -104 1 -138 -6 -132 -25 8 -23 51 -34 121 -31 39 3 77 0 85 -4 17 -11 43
-3 35 10 -3 5 0 9 5 9 6 0 11 -6 11 -14 0 -8 15 -17 36 -21 20 -3 44 -10 53
-14 167 -83 194 -104 231 -178 12 -25 24 -62 27 -82 2 -20 12 -47 22 -61 9
-14 20 -33 24 -43 4 -9 15 -20 24 -24 10 -3 25 -12 33 -19 8 -7 62 -25 119
-39 90 -23 111 -26 155 -17 28 6 68 8 89 5 32 -4 38 -1 46 19 8 18 10 19 10 5
1 -16 8 -18 64 -13 147 14 314 50 383 82 28 13 55 24 61 24 6 0 28 12 49 26
53 36 90 46 105 28 6 -8 18 -14 25 -14 8 0 14 -2 14 -5 0 -2 -25 -82 -56 -177
-31 -95 -113 -366 -183 -603 -113 -382 -125 -431 -112 -443 14 -11 14 -11 0
-6 -18 6 -21 -3 -70 -166 -13 -43 -22 -96 -20 -124 2 -40 0 -48 -13 -43 -9 4
-16 4 -16 2 0 -3 -34 -121 -76 -263 -42 -141 -77 -268 -79 -282 -1 -14 -8 -37
-14 -53 -6 -15 -13 -38 -15 -50 -3 -12 -8 -37 -12 -54 -5 -25 -3 -34 10 -39
27 -10 19 -34 -12 -34 -27 0 -29 -4 -61 -112 -37 -130 -49 -151 -94 -174 -17
-9 -35 -22 -39 -28 -4 -6 -20 -12 -35 -12 -38 -2 -183 -23 -191 -28 -4 -2 -74
2 -157 10 -82 7 -158 13 -167 14 -22 0 -24 -26 -3 -34 8 -3 15 -11 15 -17 0
-8 -7 -6 -18 4 -10 10 -21 14 -25 11 -3 -3 -11 -3 -18 2 -9 5 -7 11 6 20 10 8
17 15 14 17 -2 2 -49 10 -104 19 -66 11 -102 13 -106 6 -4 -5 -9 -3 -12 6 -4
9 -15 16 -25 16 -11 0 -75 14 -143 31 -68 17 -128 32 -134 34 -5 1 -17 5 -25
8 -8 4 -55 21 -105 38 -49 17 -127 48 -172 69 -46 21 -83 34 -83 29 0 -5 -5
-9 -11 -9 -6 0 -9 6 -6 14 4 9 -15 27 -54 51 -113 70 -239 205 -239 257 0 11
124 400 275 866 229 707 329 1035 470 1537 8 27 13 50 12 51 -1 2 -20 4 -41 6
l-40 3 -42 -139 c-24 -76 -45 -140 -46 -142 -2 -2 -35 8 -73 22 -180 66 -378
100 -471 83 -116 -22 -158 -78 -267 -354 -137 -346 -257 -835 -257 -1044 0
-73 4 -95 25 -137 46 -93 209 -233 407 -352 51 -31 76 -52 73 -60 -3 -8 -26
-83 -52 -168 l-47 -154 -1138 0 -1138 0 0 -150 0 -150 1118 -2 c614 0 1123 -1
1130 -1 6 1 12 -3 12 -8 0 -5 -5 -9 -12 -9 -24 0 108 -122 187 -173 265 -170
878 -364 1204 -382 58 -3 72 -2 44 4 -44 7 -61 17 -51 27 3 3 16 -1 27 -8 18
-11 23 -11 31 1 9 16 -4 51 -19 51 -5 0 -14 -7 -21 -15 -8 -10 -22 -12 -43 -8
-36 7 -50 22 -36 39 13 16 -12 36 -31 24 -25 -16 -34 -11 -17 8 9 10 33 19 54
20 34 3 36 2 19 -11 -17 -13 -17 -14 -1 -31 13 -13 20 -14 31 -5 7 6 19 7 25
3 7 -4 9 -3 6 3 -9 15 24 26 37 13 13 -13 29 -13 21 0 -8 13 -5 13 44 -5 22
-8 41 -10 41 -5 0 6 -9 10 -20 10 -11 0 -19 5 -17 12 3 17 -74 32 -85 16 -6
-10 -8 -9 -8 3 0 9 9 28 20 42 11 14 20 30 20 36 0 7 10 2 23 -9 12 -12 39
-29 60 -37 37 -15 45 -27 27 -38 -16 -10 -12 -35 6 -35 23 0 12 -23 -19 -38
-34 -16 -35 -32 -2 -32 14 0 25 -4 25 -9 0 -6 12 -6 30 -1 32 9 53 -6 29 -21
-18 -12 -29 -11 -29 1 0 6 -10 6 -27 -1 -32 -12 -66 -3 -43 11 9 6 10 10 3 10
-7 0 -16 -6 -20 -14 -4 -7 -15 -16 -23 -20 -28 -12 225 5 300 20 89 19 200 60
236 89 23 18 53 119 285 965 143 520 269 980 281 1022 11 43 24 75 28 73 4 -2
13 -36 20 -75 14 -73 19 -80 40 -55 7 8 18 15 24 15 32 0 33 22 5 153 -16 73
-29 143 -29 157 0 14 36 139 80 278 44 138 80 257 80 265 0 13 19 58 40 99 6
9 7 30 4 47 -5 23 -2 32 14 40 32 17 35 14 28 -29 l-6 -40 32 7 c18 3 35 10
36 15 2 4 7 6 11 4 4 -3 110 15 236 39 126 24 307 56 402 72 114 18 169 31
163 37 -6 6 -10 17 -9 26 0 10 2 11 6 3 3 -9 10 -10 24 -3 16 9 19 7 20 -12 1
-13 3 -16 5 -8 3 9 14 21 25 28 19 12 20 11 14 -8 -7 -21 -5 -21 82 -18 l88 3
3 -195 c1 -107 2 -216 2 -242 0 -36 5 -50 20 -61 20 -14 20 -15 1 -20 -17 -4
-18 -10 -11 -42 5 -20 11 -39 14 -42 3 -3 -9 -23 -26 -45 -29 -37 -30 -42 -23
-96 4 -31 8 -67 9 -79 0 -13 4 -23 7 -23 4 0 5 -10 5 -22 -1 -13 2 -29 8 -36
5 -7 10 -31 11 -52 1 -21 10 -51 19 -65 10 -15 12 -24 5 -20 -9 6 -10 2 -5
-16 4 -13 8 -31 8 -39 1 -33 20 -110 26 -106 4 2 8 -18 9 -44 2 -27 7 -60 13
-75 5 -14 10 -40 10 -56 0 -17 4 -28 8 -25 4 2 7 -8 6 -22 -1 -15 2 -31 5 -37
4 -5 8 -23 10 -40 2 -16 10 -48 17 -70 8 -22 17 -53 20 -70 3 -16 9 -34 14
-39 5 -5 6 -14 4 -21 -3 -7 2 -37 10 -66 9 -29 16 -70 16 -91 0 -21 5 -38 11
-38 5 0 7 -5 3 -12 -4 -6 5 -21 22 -36 20 -16 22 -20 7 -13 -12 6 -24 11 -27
11 -4 0 16 -71 32 -110 6 -16 8 -30 11 -73 1 -18 8 -31 24 -37 12 -5 16 -9 9
-9 -14 -1 -14 -59 0 -78 5 -6 8 -17 7 -25 -5 -21 10 -68 22 -68 6 0 7 -4 4
-10 -8 -12 45 -80 63 -80 6 0 12 -4 12 -8 0 -17 101 -34 156 -27 66 8 120 50
153 119 21 43 28 120 13 130 -5 3 -9 19 -10 36 0 17 -5 37 -10 43 -5 7 -12 30
-15 52 -7 58 -29 177 -35 195 -5 15 -7 28 -10 64 -2 16 -4 17 -19 5 -15 -12
-16 -12 -7 1 14 23 12 59 -3 53 -10 -4 -11 0 -3 21 5 14 6 26 1 26 -4 0 -8 12
-7 27 1 20 -6 31 -24 40 -19 10 -21 13 -7 13 15 0 17 6 11 38 -4 20 -9 41 -12
46 -3 5 -6 21 -8 35 -1 14 -5 40 -8 56 -3 17 -7 39 -9 50 -1 11 -6 25 -9 30
-3 6 -9 28 -13 50 -15 90 -36 192 -46 222 -6 18 -13 49 -15 70 -3 20 -11 50
-18 67 -8 17 -17 45 -21 61 -16 80 -25 114 -43 165 -32 93 -75 72 -48 -24 8
-28 24 -103 36 -166 11 -63 36 -178 54 -255 19 -77 43 -192 55 -255 12 -63 26
-126 30 -140 26 -77 53 -189 70 -291 11 -64 26 -133 35 -153 20 -48 46 -174
46 -223 0 -75 -70 -143 -147 -143 -69 0 -123 47 -142 125 -5 22 -16 66 -25 98
-36 128 -45 168 -56 243 -6 44 -24 122 -40 174 -27 91 -47 180 -131 578 -21
100 -51 228 -68 285 -16 56 -32 117 -36 135 -8 37 2 92 16 92 6 0 7 -5 4 -11
-9 -14 35 -75 65 -90 36 -18 46 -18 86 -6 26 8 41 21 56 51 12 23 20 41 19 41
-1 0 2 11 7 25 14 38 25 247 14 254 -7 4 -7 17 -2 35 4 16 6 31 4 34 -2 2 -6
44 -8 94 -4 100 -8 113 -37 113 -22 0 -22 3 -19 -180 2 -150 -15 -341 -33
-380 -30 -61 -79 -13 -109 106 -17 65 -21 118 -23 304 -3 216 -12 315 -33 371
-12 29 -66 79 -87 79 -7 0 -19 2 -27 4 -7 2 -24 1 -38 -1z m-70 -108 c0 -9 -6
-12 -15 -9 -8 4 -15 10 -15 15 0 5 7 9 15 9 8 0 15 -7 15 -15z m-3385 -185 c3
-5 -1 -10 -9 -10 -9 0 -16 5 -16 10 0 6 4 10 9 10 6 0 13 -4 16 -10z m45 -26
c0 -2 -7 -4 -15 -4 -8 0 -15 4 -15 10 0 5 7 7 15 4 8 -4 15 -8 15 -10z m-125
-4 c3 -5 1 -10 -4 -10 -6 0 -11 5 -11 10 0 6 2 10 4 10 3 0 8 -4 11 -10z m350
-11 c11 -17 -1 -21 -15 -4 -8 9 -8 15 -2 15 6 0 14 -5 17 -11z m2015 -25 c0
-2 -7 -4 -15 -4 -8 0 -15 4 -15 10 0 5 7 7 15 4 8 -4 15 -8 15 -10z m-2442
-78 c-9 -6 -17 -20 -19 -31 -4 -19 -49 -36 -49 -19 0 13 64 70 74 65 5 -2 2
-9 -6 -15z m16 -215 c4 -5 1 -11 -5 -13 -6 -2 35 -24 91 -48 56 -25 104 -50
107 -57 3 -8 -157 -549 -184 -619 -4 -10 0 -12 11 -8 17 7 19 4 10 -20 -3 -8
-11 -13 -18 -10 -9 3 -34 -65 -81 -220 l-68 -225 -46 38 c-149 125 -261 272
-261 344 0 88 71 326 182 609 83 212 99 232 185 226 29 -2 53 0 53 5 0 10 18
9 24 -2z m146 -516 c0 -8 -9 -19 -20 -25 -23 -12 -25 -8 -8 20 15 24 28 26 28
5z m-631 -36 c-16 -10 -23 -4 -14 10 3 6 11 8 17 5 6 -4 5 -9 -3 -15z m2685
-94 c19 -14 19 -15 -5 -15 -16 0 -26 6 -26 15 0 19 7 18 31 0z m-2131 -20 c-3
-9 -8 -14 -10 -11 -3 3 -2 9 2 15 9 16 15 13 8 -4z m2117 -115 c-8 -5 -22 -10
-30 -10 -13 0 -13 1 0 10 8 5 22 10 30 10 13 0 13 -1 0 -10z m2165 -600 c3 -5
1 -10 -4 -10 -6 0 -11 5 -11 10 0 6 2 10 4 10 3 0 8 -4 11 -10z m-4648 -22
c-3 -8 -6 -5 -6 6 -1 11 2 17 5 13 3 -3 4 -12 1 -19z m2183 -378 c0 -5 -5 -10
-11 -10 -5 0 -7 5 -4 10 3 6 8 10 11 10 2 0 4 -4 4 -10z m-2016 -275 c-4 -8
-10 -12 -15 -9 -14 8 -10 24 6 24 9 0 12 -6 9 -15z m-129 -55 c-3 -5 -13 -10
-21 -10 -8 0 -12 5 -9 10 3 6 13 10 21 10 8 0 12 -4 9 -10z m2054 -117 c1 -7
-3 -13 -9 -13 -5 0 -10 17 -9 38 1 33 2 34 9 12 4 -14 8 -31 9 -37z m-2062 12
c9 -25 -4 -29 -17 -6 -7 15 -7 21 0 21 6 0 13 -7 17 -15z m893 -185 c0 -5 -2
-10 -4 -10 -3 0 -8 5 -11 10 -3 6 -1 10 4 10 6 0 11 -4 11 -10z m83 -7 c3 -5
-1 -14 -9 -20 -14 -14 -30 0 -19 17 7 12 22 13 28 3z m1020 -5 c2 -7 -10 -19
-26 -25 -38 -17 -47 -16 -47 2 0 9 9 15 25 15 14 0 25 5 25 10 0 14 18 12 23
-2z m-647 -72 c-3 -11 -6 -24 -6 -28 0 -15 -18 -8 -24 8 -10 26 3 54 20 47 10
-4 14 -13 10 -27z m-264 -14 c-7 -2 -9 -9 -6 -15 5 -9 4 -9 -6 0 -15 13 -4 37
13 26 8 -5 8 -8 -1 -11z m836 -10 c2 -7 -7 -12 -22 -12 -27 0 -35 15 -13 23
17 7 30 3 35 -11z m-58 -1 c0 -11 -26 -22 -34 -14 -12 12 -5 23 14 23 11 0 20
-4 20 -9z m-50 -15 c0 -23 -16 -27 -31 -9 -10 12 -10 14 -1 9 6 -4 12 -2 12 3
0 6 5 11 10 11 6 0 10 -6 10 -14z m-530 -16 c-8 -5 -17 -7 -19 -4 -3 3 1 9 9
14 8 5 17 7 19 4 3 -3 -1 -9 -9 -14z m690 -13 c0 -10 -14 -32 -31 -48 -26 -24
-34 -27 -56 -18 -19 7 -28 6 -34 -3 -6 -10 -11 -10 -20 -1 -18 18 -6 25 46 25
52 1 62 9 40 31 -23 24 -18 33 20 33 28 0 35 -4 35 -19z m-203 -34 c-21 -21
-27 -15 -16 16 7 19 12 22 21 13 9 -9 8 -16 -5 -29z"/>
<path d="M6718 6690 l-63 -59 43 -1 c23 0 42 -1 42 -2 0 -12 122 -606 126
-618 3 -8 8 -33 10 -55 6 -62 19 -100 35 -100 9 0 14 -11 14 -27 1 -16 -3 -28
-7 -28 -4 0 -8 -7 -8 -15 0 -8 5 -15 11 -15 5 0 7 -5 4 -10 -7 -12 96 -453
107 -458 4 -2 5 -9 3 -15 -3 -7 11 -70 30 -142 20 -71 36 -137 36 -145 0 -8 3
-22 6 -30 4 -8 7 -19 7 -25 7 -50 20 -95 27 -95 6 0 8 -4 4 -9 -3 -6 30 -160
74 -343 44 -183 87 -362 95 -397 14 -61 14 -67 -4 -96 -51 -82 -195 -190 -328
-245 -42 -18 -83 -40 -90 -49 -8 -9 -10 -10 -6 -2 5 11 3 13 -10 8 -10 -4 -22
-7 -26 -7 -5 0 -23 -15 -40 -32 -17 -18 -28 -25 -24 -15 7 20 -19 23 -63 6
-39 -15 -248 -55 -378 -73 -458 -63 -807 -33 -917 79 -33 33 -23 -4 -103 370
-36 171 -69 317 -72 325 -8 19 -12 37 -17 77 -4 24 -119 558 -141 648 -2 11
-19 88 -36 170 -17 83 -33 151 -34 153 -5 6 -85 -23 -85 -31 0 -5 5 -5 10 -2
6 3 10 2 10 -4 0 -5 -4 -11 -8 -13 -10 -4 47 -312 58 -316 4 -2 6 -11 4 -20
-2 -9 41 -249 97 -532 55 -283 102 -526 104 -540 15 -100 28 -151 37 -138 7
10 11 10 15 1 3 -8 23 -13 49 -13 32 0 44 -4 44 -14 0 -8 -4 -18 -10 -21 -5
-3 -10 -16 -10 -27 0 -27 -48 -90 -62 -82 -7 5 -9 -1 -5 -17 3 -13 13 -63 23
-111 19 -98 33 -115 130 -159 27 -12 57 -26 68 -31 13 -7 21 -6 27 4 8 12 13
4 10 -14 -2 -12 14 -9 28 5 11 10 13 9 8 -4 -6 -19 39 -30 193 -49 232 -28
555 6 905 95 451 115 701 242 766 391 19 43 20 48 5 114 -9 38 -16 71 -16 74
0 4 522 6 1160 6 l1160 0 0 150 0 150 -1194 0 -1194 0 -11 44 c-19 75 -16 85
32 105 64 28 231 125 301 175 78 56 152 135 176 189 39 85 23 290 -49 644 -50
241 -55 261 -65 245 -11 -19 -26 -4 -26 26 -1 15 -7 38 -15 52 -19 33 -19 50
0 50 8 0 15 8 14 18 0 10 -3 12 -6 5 -7 -18 -23 -16 -23 2 0 8 5 15 10 15 6 0
10 5 10 10 0 6 -9 10 -20 10 -18 0 -25 -11 -21 -34 1 -4 -4 -15 -11 -23 -9
-12 -9 -16 3 -24 12 -7 11 -9 -2 -9 -9 0 -24 9 -34 20 -10 11 -21 17 -26 15
-4 -3 -10 -1 -14 5 -3 5 0 10 7 10 7 0 24 25 37 55 13 30 27 55 31 55 4 0 15
-15 24 -32 28 -58 17 -14 -35 138 -62 181 -110 277 -153 302 -53 32 -133 45
-211 35 -51 -6 -69 -12 -67 -23 3 -11 0 -11 -12 0 -11 8 -16 9 -16 1 0 -7 -10
-9 -26 -7 -34 6 -245 -61 -241 -76 1 -7 -6 -14 -16 -16 -16 -3 -17 -1 -9 15 8
14 -3 78 -41 251 -28 128 -54 232 -59 232 -4 0 -36 -27 -70 -60z m47 -40 c-3
-5 -11 -10 -16 -10 -6 0 -7 5 -4 10 3 6 11 10 16 10 6 0 7 -4 4 -10z m449
-326 c24 -9 20 -33 -4 -27 -11 3 -20 12 -20 19 0 16 2 16 24 8z m266 -280 c0
-8 -5 -12 -10 -9 -6 4 -8 11 -5 16 9 14 15 11 15 -7z m64 -61 c-9 -32 -25 -18
-22 18 2 23 5 27 15 16 7 -6 10 -22 7 -34z m-54 10 c0 -19 -17 -51 -22 -43 -2
3 -14 17 -27 33 l-24 27 36 0 c29 0 37 -4 37 -17z m-108 -83 c7 -16 18 -30 24
-30 6 0 17 -7 24 -15 10 -13 10 -19 -4 -34 -26 -28 -6 -73 32 -71 50 4 57 1
44 -12 -7 -7 -20 -13 -30 -13 -28 0 -25 -33 22 -198 25 -87 53 -195 62 -240
10 -45 19 -84 20 -86 2 -2 10 4 19 13 9 9 21 16 26 16 16 0 9 -18 -14 -37 -22
-17 -24 -24 -19 -100 4 -75 2 -85 -24 -133 -16 -30 -62 -84 -107 -125 -87 -81
-193 -159 -200 -148 -2 5 -26 105 -52 224 -43 192 -51 216 -67 211 -20 -5 -21
-2 -12 23 5 13 8 14 15 3 15 -24 10 5 -61 321 -38 171 -70 317 -70 324 0 9 61
36 168 75 92 33 172 61 179 61 6 1 17 -12 25 -29z m96 0 c-10 -6 -25 -7 -40
-1 -20 9 -18 10 17 10 31 0 36 -2 23 -9z m-6 -52 c-9 -9 -12 -7 -12 12 0 19 3
21 12 12 9 -9 9 -15 0 -24z m28 -38 c-9 -17 -15 -19 -23 -10 -9 9 -7 15 7 26
25 18 31 12 16 -16z m-50 -8 c0 -13 -12 -22 -22 -16 -10 6 -1 24 13 24 5 0 9
-4 9 -8z m146 -36 c18 -14 18 -15 -8 -21 -32 -8 -49 0 -41 20 7 19 24 19 49 1z
m34 -62 c0 -8 -4 -12 -10 -9 -5 3 -10 10 -10 16 0 5 5 9 10 9 6 0 10 -7 10
-16z m-62 -21 c-9 -10 -13 -23 -11 -30 8 -21 -16 -24 -27 -3 -8 16 -8 20 4 20
7 0 16 7 20 15 3 8 11 15 17 15 8 0 7 -6 -3 -17z m120 -13 c12 0 13 -3 4 -12
-8 -8 -8 -17 -1 -30 14 -27 2 -36 -16 -12 -8 10 -14 35 -14 54 1 19 3 27 6 18
2 -10 12 -18 21 -18z m-2681 -492 c-3 -8 -6 -5 -6 6 -1 11 2 17 5 13 3 -3 4
-12 1 -19z m2798 -36 c6 -4 18 -19 27 -33 21 -32 8 -49 -36 -49 -53 0 -63 13
-43 54 16 35 31 43 52 28z m51 -229 c-11 -11 -19 6 -11 24 8 17 8 17 12 0 3
-10 2 -21 -1 -24z m-100 -69 c5 -20 1 -32 -18 -51 -34 -34 -64 -25 -70 21 -3
28 -1 32 17 28 12 -2 27 4 34 12 19 23 30 20 37 -10z m34 -24 c0 -5 -5 -10
-11 -10 -5 0 -7 5 -4 10 3 6 8 10 11 10 2 0 4 -4 4 -10z m-2480 -760 c0 -5 -4
-10 -10 -10 -5 0 -10 5 -10 10 0 6 5 10 10 10 6 0 10 -4 10 -10z m0 -74 c-5
-5 -16 -6 -26 -2 -16 6 -16 8 2 20 14 11 21 11 26 3 4 -7 3 -16 -2 -21z m1977
-198 c-3 -8 -6 -5 -6 6 -1 11 2 17 5 13 3 -3 4 -12 1 -19z m113 18 c0 -3 -4
-8 -10 -11 -5 -3 -10 -1 -10 4 0 6 5 11 10 11 6 0 10 -2 10 -4z m0 -41 c10
-12 10 -15 -4 -15 -9 0 -16 7 -16 15 0 8 2 15 4 15 2 0 9 -7 16 -15z m-2030
-135 c0 -5 -5 -10 -11 -10 -5 0 -7 5 -4 10 3 6 8 10 11 10 2 0 4 -4 4 -10z
m1101 -104 c14 -15 11 -36 -6 -36 -13 0 -17 6 -14 26 0 4 -5 10 -12 15 -10 6
-10 11 2 25 13 16 14 16 17 -2 2 -10 8 -23 13 -28z m-1131 20 c0 -3 -4 -8 -10
-11 -5 -3 -10 -1 -10 4 0 6 5 11 10 11 6 0 10 -2 10 -4z m390 -56 c0 -5 -4
-10 -10 -10 -5 0 -10 5 -10 10 0 6 5 10 10 10 6 0 10 -4 10 -10z m1120 0 c0
-5 -2 -10 -4 -10 -3 0 -8 5 -11 10 -3 6 -1 10 4 10 6 0 11 -4 11 -10z m-1010
-10 c0 -5 -4 -10 -10 -10 -5 0 -10 5 -10 10 0 6 5 10 10 10 6 0 10 -4 10 -10z
m710 -20 c0 -11 -7 -20 -15 -20 -15 0 -21 21 -8 33 12 13 23 7 23 -13z m-1090
6 c0 -11 -19 -15 -25 -6 -3 5 1 10 9 10 9 0 16 -2 16 -4z m1390 -26 c0 -5 -2
-10 -4 -10 -3 0 -8 5 -11 10 -3 6 -1 10 4 10 6 0 11 -4 11 -10z m-130 -21 c0
-6 -4 -7 -10 -4 -5 3 -10 11 -10 16 0 6 5 7 10 4 6 -3 10 -11 10 -16z m-1310
1 c0 -5 -11 -10 -25 -10 -14 0 -25 5 -25 10 0 6 11 10 25 10 14 0 25 -4 25
-10z m130 -11 c0 -5 -4 -9 -10 -9 -5 0 -10 7 -10 16 0 8 5 12 10 9 6 -3 10
-10 10 -16z m1010 -4 c0 -8 -4 -17 -10 -20 -6 -4 -10 5 -10 20 0 15 4 24 10
20 6 -3 10 -12 10 -20z m107 -2 c2 -6 -3 -13 -12 -16 -10 -5 -15 0 -15 14 0
21 21 22 27 2z m-857 -55 c0 -19 -16 -5 -17 14 -2 18 0 20 7 8 5 -8 10 -18 10
-22z m767 16 c-3 -3 -12 -4 -19 -1 -8 3 -5 6 6 6 11 1 17 -2 13 -5z"/>
<path d="M3215 6216 c-16 -7 -43 -27 -60 -44 -28 -28 -38 -54 -70 -184 -8 -31
-35 -113 -60 -182 -25 -68 -52 -157 -60 -198 -9 -40 -45 -165 -81 -278 -163
-511 -194 -611 -218 -706 -14 -55 -26 -118 -26 -140 0 -47 36 -114 70 -130 14
-7 48 -24 76 -38 29 -14 65 -26 80 -26 45 0 129 44 156 81 13 19 43 97 67 174
23 77 71 228 106 335 35 107 76 240 90 295 30 115 61 217 79 260 28 65 36 93
51 165 9 41 41 150 71 243 63 189 64 216 12 287 -54 76 -206 122 -283 86z
m182 -79 c49 -41 63 -60 64 -90 2 -54 -2 -77 -20 -122 -7 -16 -15 -46 -18 -65
-2 -19 -9 -47 -15 -61 -5 -15 -11 -37 -13 -50 -6 -34 -43 -145 -67 -200 -11
-26 -17 -52 -14 -58 4 -6 2 -11 -4 -11 -6 0 -8 -4 -5 -10 3 -5 1 -10 -6 -10
-6 0 -9 -8 -6 -20 3 -11 1 -18 -4 -14 -7 4 -12 -33 -8 -62 0 -4 -5 -11 -13
-15 -10 -7 -10 -9 0 -9 9 0 8 -7 -4 -25 -9 -14 -13 -25 -10 -25 4 0 -1 -11 -9
-24 -10 -15 -14 -33 -9 -50 5 -19 3 -26 -7 -24 -8 2 -17 -14 -24 -42 -6 -25
-17 -58 -23 -73 -7 -16 -12 -33 -12 -38 0 -5 -4 -17 -9 -27 -14 -27 -41 -122
-41 -146 0 -12 -4 -26 -9 -31 -14 -16 -109 -317 -114 -362 -2 -16 -13 -46 -26
-66 -29 -47 -73 -61 -156 -52 -60 6 -64 8 -80 41 -9 20 -26 39 -38 44 -12 5
-17 9 -12 9 6 1 9 15 7 34 -2 18 3 51 12 71 17 42 21 70 8 62 -5 -3 -9 1 -9 9
0 8 8 15 18 15 14 0 20 11 25 50 4 28 10 50 15 50 5 0 12 18 15 40 4 22 10 40
15 40 5 0 9 8 9 18 0 9 7 35 14 57 8 22 16 51 18 65 1 14 6 27 9 30 9 8 70
198 74 231 3 17 9 37 15 44 6 7 18 44 26 81 29 131 59 230 90 302 8 18 11 38
8 44 -4 7 -2 8 4 4 8 -5 12 0 12 13 0 11 5 23 11 27 6 3 9 17 6 30 -2 13 -1
21 3 19 4 -3 10 12 14 33 5 35 10 58 19 92 2 8 10 27 17 42 11 24 11 30 -3 46
-16 18 -16 19 5 18 15 -1 23 5 23 16 0 9 4 20 8 24 4 4 7 16 7 27 0 18 35 53
69 69 22 11 130 -1 148 -15z m-332 -367 c3 -5 1 -10 -4 -10 -6 0 -11 5 -11 10
0 6 2 10 4 10 3 0 8 -4 11 -10z m265 -330 c0 -5 -4 -10 -10 -10 -5 0 -10 5
-10 10 0 6 5 10 10 10 6 0 10 -4 10 -10z m-610 -1034 c0 -11 -19 -15 -25 -6
-3 5 1 10 9 10 9 0 16 -2 16 -4z"/>
<path d="M3819 6044 c-75 -23 -110 -70 -143 -194 -31 -120 -62 -221 -80 -265
-28 -65 -36 -93 -51 -164 -8 -40 -40 -148 -70 -240 -30 -91 -59 -186 -65 -211
-7 -25 -37 -119 -67 -210 -58 -176 -123 -413 -123 -452 0 -12 11 -46 24 -74
18 -38 32 -54 57 -63 19 -7 56 -24 82 -38 38 -19 56 -23 85 -18 48 9 101 37
131 68 22 25 84 194 117 322 8 33 42 139 74 235 32 96 73 231 90 300 18 69 48
165 67 215 19 49 43 128 53 175 11 47 40 146 65 220 58 169 64 213 37 267 -30
59 -82 99 -158 123 -76 23 -66 23 -125 4z m171 -94 c34 -24 60 -73 60 -114 0
-14 -9 -49 -21 -78 -11 -29 -22 -66 -23 -83 -2 -16 -9 -43 -15 -58 -6 -16 -11
-35 -11 -43 0 -9 -5 -24 -11 -35 -6 -11 -17 -45 -25 -75 -8 -31 -23 -75 -34
-100 -12 -25 -18 -48 -16 -53 3 -5 -1 -14 -8 -20 -14 -12 -21 -40 -31 -126 -3
-21 -11 -43 -18 -47 -6 -4 -8 -8 -3 -8 4 0 1 -11 -8 -25 -19 -29 -20 -39 -4
-29 7 4 8 3 4 -5 -4 -6 -3 -18 4 -26 9 -11 7 -12 -9 -8 -16 4 -21 1 -21 -15 0
-12 -5 -24 -11 -28 -6 -3 -9 -24 -7 -44 3 -30 1 -36 -9 -28 -10 8 -13 4 -14
-18 -1 -16 -1 -32 0 -36 0 -5 -3 -8 -7 -8 -5 0 -19 -39 -32 -87 -12 -49 -26
-92 -30 -98 -6 -8 -17 -42 -25 -75 0 -3 -8 -25 -17 -50 -27 -73 -68 -217 -68
-236 0 -9 -8 -35 -17 -55 -25 -52 -76 -73 -159 -64 -58 6 -62 8 -88 50 -16 24
-33 42 -40 41 -6 -2 -8 -1 -4 1 4 2 5 22 2 44 -3 24 -1 39 6 39 6 0 8 5 5 10
-4 6 0 21 8 33 9 15 12 30 6 45 -6 16 -5 22 6 22 8 0 15 7 15 15 0 8 4 23 9
33 12 23 34 99 34 117 0 8 4 15 8 15 4 0 16 35 28 78 11 42 30 101 41 130 11
28 20 53 19 55 0 1 4 15 10 30 6 16 9 33 5 38 -3 5 0 9 5 9 6 0 11 6 11 14 0
7 11 48 25 90 14 42 25 87 25 100 0 13 7 37 16 54 8 18 13 36 9 42 -3 5 1 20
9 32 8 13 20 46 27 73 7 28 22 72 35 100 12 27 20 57 19 67 -2 10 0 16 4 13 5
-3 12 2 15 11 10 26 7 52 -6 57 -8 4 -7 6 3 6 19 1 33 51 15 52 -7 0 -6 3 2 6
6 2 12 11 12 19 0 8 6 14 13 14 8 0 7 4 -3 10 -9 6 -10 10 -3 10 18 0 27 58
11 77 -11 15 -11 16 5 10 12 -5 20 -1 23 11 3 9 9 24 12 32 3 8 6 20 7 25 0 6
10 22 23 35 12 13 22 27 22 31 0 4 33 6 74 5 58 -2 80 -7 106 -26z m-335 -360
c3 -5 1 -10 -4 -10 -6 0 -11 5 -11 10 0 6 2 10 4 10 3 0 8 -4 11 -10z m255
-330 c0 -5 -2 -10 -4 -10 -3 0 -8 5 -11 10 -3 6 -1 10 4 10 6 0 11 -4 11 -10z
m-25 -40 c3 -5 1 -10 -4 -10 -6 0 -11 5 -11 10 0 6 2 10 4 10 3 0 8 -4 11 -10z"/>
<path d="M5873 5940 c-77 -16 -115 -43 -148 -110 -33 -65 -17 -184 74 -533 23
-87 44 -180 47 -205 7 -63 20 -118 39 -172 9 -25 34 -130 55 -235 22 -104 46
-212 54 -240 8 -27 26 -111 41 -185 14 -74 36 -155 48 -180 41 -84 135 -112
249 -74 71 23 104 48 129 95 18 36 19 48 10 134 -5 52 -12 99 -15 103 -3 5
-21 90 -41 188 -20 98 -47 220 -59 269 -13 50 -36 155 -51 235 -15 80 -43 198
-61 264 -18 65 -38 146 -44 180 -38 216 -84 373 -123 415 -48 52 -114 68 -204
51z m161 -91 c25 -27 66 -175 66 -239 0 -22 4 -40 9 -40 5 0 7 -8 4 -18 -2
-10 5 -41 16 -69 11 -28 17 -54 13 -59 -4 -4 -1 -4 7 1 11 6 13 1 9 -24 -2
-17 -2 -31 2 -31 3 0 6 -14 5 -32 0 -25 6 -35 25 -45 19 -10 21 -13 7 -13 -15
0 -17 -6 -11 -37 4 -21 11 -43 15 -49 5 -6 7 -18 3 -27 -3 -8 0 -25 6 -37 6
-11 13 -44 16 -72 2 -28 8 -56 14 -63 5 -6 7 -14 4 -18 -3 -3 0 -15 6 -27 6
-11 13 -42 16 -68 3 -40 17 -104 40 -187 3 -11 8 -36 11 -55 3 -19 13 -60 23
-90 10 -30 25 -86 34 -125 10 -38 29 -106 44 -150 28 -86 29 -101 5 -127 -8
-9 -12 -22 -7 -29 4 -8 3 -10 -4 -5 -7 4 -12 3 -12 -3 0 -5 6 -12 13 -15 8 -4
7 -5 -3 -4 -22 2 -51 -13 -44 -23 3 -5 2 -9 -3 -10 -49 -3 -100 -13 -108 -21
-7 -8 -5 -8 5 -3 8 5 11 4 7 0 -13 -15 -37 -14 -37 1 0 8 -9 14 -20 14 -11 0
-20 5 -20 11 0 7 -10 9 -25 7 -13 -3 -22 -1 -19 3 3 5 -1 9 -8 9 -9 0 -9 3 2
10 13 8 9 13 -10 12 -3 0 -6 16 -6 36 -1 20 -9 66 -19 102 -9 36 -19 83 -21
104 -3 22 -10 48 -15 57 -5 10 -9 34 -9 54 0 25 -4 34 -12 29 -7 -4 -8 -3 -4
5 4 6 3 26 -3 44 -6 17 -13 51 -16 75 -3 23 -11 59 -19 80 -8 20 -19 64 -26
97 -7 33 -21 94 -31 135 -10 41 -20 105 -24 143 -4 37 -12 73 -18 80 -7 6 -12
18 -13 25 -1 6 -2 21 -2 33 -1 11 -6 18 -10 15 -5 -3 -8 8 -7 24 1 17 -1 30
-5 30 -4 0 -5 12 -2 26 3 16 -1 29 -9 34 -7 5 -14 29 -15 54 -2 26 -6 51 -10
58 -4 6 -8 25 -10 42 -6 52 -11 79 -34 170 -25 99 -21 142 13 174 59 56 188
67 231 21z m120 -317 c3 -5 -1 -9 -9 -9 -8 0 -15 4 -15 9 0 4 4 8 9 8 6 0 12
-4 15 -8z m-334 -52 c0 -5 -2 -10 -4 -10 -3 0 -8 5 -11 10 -3 6 -1 10 4 10 6
0 11 -4 11 -10z m340 6 c0 -3 -4 -8 -10 -11 -5 -3 -10 -1 -10 4 0 6 5 11 10
11 6 0 10 -2 10 -4z m-260 -386 c0 -5 -2 -10 -4 -10 -3 0 -8 5 -11 10 -3 6 -1
10 4 10 6 0 11 -4 11 -10z"/>
<path d="M4446 5830 c-50 -15 -104 -60 -120 -99 -8 -21 -26 -80 -40 -132 -24
-92 -43 -148 -86 -259 -11 -30 -27 -84 -36 -120 -15 -67 -108 -363 -219 -695
-120 -359 -135 -442 -93 -517 18 -32 37 -46 97 -74 85 -39 128 -42 188 -13 67
33 85 63 142 240 53 168 129 395 161 484 10 28 26 79 35 115 26 101 76 264 85
275 12 16 47 126 55 173 4 24 34 120 66 213 32 94 59 186 59 205 0 83 -72 161
-176 194 -72 22 -76 22 -118 10z m124 -82 c37 -8 80 -50 89 -86 8 -31 8 -80 1
-89 -2 -2 -3 -6 -5 -10 -1 -5 -7 -20 -13 -34 -6 -15 -14 -44 -17 -65 -4 -22
-13 -55 -20 -75 -8 -20 -11 -39 -8 -43 3 -3 1 -12 -6 -20 -6 -7 -21 -47 -32
-87 -11 -41 -27 -84 -35 -96 -8 -12 -16 -30 -17 -40 -2 -10 -10 -31 -17 -46
-11 -23 -12 -32 -1 -49 11 -18 11 -20 -2 -15 -12 4 -17 -5 -22 -44 -4 -27 -12
-49 -18 -49 -6 0 -7 -3 -4 -7 4 -3 1 -16 -7 -28 -12 -19 -12 -26 -2 -47 12
-23 12 -25 -5 -21 -14 4 -19 0 -19 -15 0 -12 -4 -24 -10 -27 -5 -3 -10 -16
-10 -29 0 -12 -4 -26 -10 -32 -5 -5 -10 -24 -12 -42 -1 -17 -6 -32 -10 -32 -4
0 -12 -19 -18 -42 -6 -24 -15 -51 -20 -60 -6 -10 -10 -28 -10 -41 0 -13 -4
-27 -8 -32 -5 -6 -21 -50 -36 -100 -16 -49 -37 -115 -48 -145 -11 -30 -26 -80
-33 -110 -7 -30 -19 -67 -26 -82 -21 -40 -85 -56 -185 -44 -20 2 -58 31 -60
45 -3 19 -18 41 -28 41 -8 0 -11 11 -8 31 3 24 1 30 -8 24 -7 -4 -4 4 5 19 10
14 14 26 10 26 -4 0 0 12 10 26 14 22 15 31 6 51 -10 21 -9 24 3 20 11 -5 18
5 27 36 6 23 17 54 25 69 8 14 14 35 14 45 0 10 4 23 8 28 9 10 38 100 46 140
2 11 13 41 25 68 11 26 20 48 19 50 -1 1 6 22 14 47 37 105 68 209 71 236 2
16 9 39 15 51 7 12 12 31 12 42 0 11 6 35 14 53 22 50 58 161 59 180 1 9 5 14
9 12 4 -3 8 6 8 20 0 14 5 26 11 26 6 0 9 9 6 20 -3 11 -1 18 4 14 5 -3 9 11
9 30 0 19 5 38 11 42 8 5 8 8 0 13 -8 5 -5 13 6 27 10 10 19 26 20 34 1 8 5
28 9 44 4 18 3 27 -3 23 -5 -3 -10 1 -10 9 0 8 6 13 14 10 8 -3 16 2 19 12 3
9 10 25 15 35 6 11 6 24 -1 36 -8 16 -7 18 8 14 12 -3 22 4 31 20 11 22 18 23
74 21 34 -1 69 -4 77 -6z m-280 -328 c0 -5 -5 -10 -11 -10 -5 0 -7 5 -4 10 3
6 8 10 11 10 2 0 4 -4 4 -10z m-20 -51 c0 -6 -4 -7 -10 -4 -5 3 -10 11 -10 16
0 6 5 7 10 4 6 -3 10 -11 10 -16z m-370 -1359 c0 -5 -2 -10 -4 -10 -3 0 -8 5
-11 10 -3 6 -1 10 4 10 6 0 11 -4 11 -10z"/>
<path d="M5270 5824 c-30 -8 -68 -27 -84 -42 -36 -34 -65 -97 -66 -139 0 -51
48 -285 85 -418 19 -66 44 -175 55 -243 11 -68 29 -147 40 -175 11 -29 35
-131 55 -227 19 -96 42 -199 51 -228 8 -29 28 -121 45 -204 16 -82 34 -160 40
-171 22 -43 64 -78 110 -92 41 -12 56 -12 109 1 98 23 138 51 174 122 13 24
15 41 8 65 -5 17 -7 38 -5 45 5 12 -16 116 -82 412 -20 85 -51 234 -70 330
-36 177 -44 212 -90 375 -13 50 -32 135 -41 190 -9 55 -32 151 -51 213 -40
128 -72 172 -138 191 -51 14 -77 13 -145 -5z m181 -87 c16 -16 29 -39 29 -52
0 -13 5 -36 10 -50 13 -34 41 -183 41 -212 -1 -15 5 -23 17 -24 10 0 12 -3 5
-6 -7 -2 -13 -9 -13 -14 0 -4 7 -6 15 -3 8 4 15 1 15 -5 0 -6 -4 -11 -9 -11
-4 0 -6 -11 -3 -25 2 -14 7 -23 11 -21 4 3 6 -8 5 -25 -1 -16 1 -29 6 -29 4 0
5 -11 2 -25 -2 -14 2 -32 9 -41 7 -9 13 -32 12 -52 -1 -44 13 -75 30 -65 8 4
7 1 -1 -10 -10 -11 -11 -27 -6 -49 4 -18 8 -40 9 -48 1 -8 10 -46 20 -85 28
-115 45 -199 45 -222 0 -13 3 -23 8 -23 4 0 8 -10 8 -22 2 -33 32 -161 45
-195 7 -15 13 -41 15 -58 3 -16 9 -34 14 -39 6 -6 10 -22 10 -36 0 -14 13 -65
29 -113 30 -87 30 -119 3 -146 -7 -8 -11 -22 -9 -33 3 -10 2 -16 -2 -13 -5 2
-17 -4 -29 -15 -11 -11 -43 -22 -71 -26 -28 -4 -54 -10 -57 -15 -2 -5 -21 1
-41 12 -19 11 -41 18 -48 15 -8 -3 -11 2 -8 12 2 10 -5 27 -16 38 -11 12 -18
24 -15 27 7 7 -17 127 -25 123 -3 -2 -7 13 -8 34 -1 38 -41 238 -50 252 -2 4
-8 31 -13 60 -4 29 -14 67 -21 83 -7 17 -14 43 -16 60 -2 16 -8 34 -13 39 -6
6 -10 22 -10 38 0 15 -7 53 -15 85 -8 31 -15 75 -15 96 0 21 -4 36 -8 33 -5
-3 -8 9 -7 27 1 18 -2 45 -8 60 -8 24 -11 26 -26 15 -14 -11 -14 -11 -4 2 15
19 12 72 -4 66 -8 -3 -9 4 -3 25 5 16 5 29 0 29 -4 0 -7 11 -6 25 2 14 -5 32
-16 41 -12 12 -15 20 -7 24 7 5 7 19 -2 51 -7 24 -14 51 -15 59 0 8 -2 20 -3
27 0 7 -9 10 -18 7 -12 -4 -14 -3 -6 3 18 13 1 139 -25 190 -18 35 -2 99 31
131 40 37 77 50 146 48 45 0 59 -5 82 -29z m119 -317 c0 -5 -4 -10 -10 -10 -5
0 -10 5 -10 10 0 6 5 10 10 10 6 0 10 -4 10 -10z m-256 -431 c-6 -11 -24 -2
-24 11 0 5 7 7 15 4 8 -4 12 -10 9 -15z m546 -969 c0 -5 -2 -10 -4 -10 -3 0
-8 5 -11 10 -3 6 -1 10 4 10 6 0 11 -4 11 -10z"/>
<path d="M7708 5772 c-4 -12 -2 -20 3 -16 5 3 9 -3 10 -13 0 -10 3 -13 5 -7 3
6 1 21 -4 34 l-9 24 -5 -22z"/>
<path d="M7731 5704 c0 -11 3 -14 6 -6 3 7 2 16 -1 19 -3 4 -6 -2 -5 -13z"/>
<path d="M5256 3791 c-7 -10 5 -104 11 -97 10 9 12 106 3 106 -5 0 -11 -4 -14
-9z"/>
<path d="M7150 2845 c-145 -41 -217 -147 -228 -331 -10 -193 32 -278 250 -500
190 -194 212 -232 206 -349 -4 -84 -19 -109 -80 -127 -29 -8 -47 -8 -76 0 -65
20 -76 41 -82 151 l-5 96 -110 0 -110 0 -3 -60 c-10 -191 73 -345 211 -391 72
-25 215 -24 286 0 200 69 274 351 154 590 -28 56 -66 101 -194 232 -185 189
-209 228 -209 336 0 79 14 114 51 134 59 30 144 10 167 -41 7 -14 12 -55 12
-90 l0 -65 115 0 115 0 0 43 c0 126 -51 264 -115 313 -86 65 -240 91 -355 59z"/>
<path d="M1410 2085 l0 -755 215 0 c120 0 237 5 267 11 106 23 173 75 217 169
25 53 26 62 26 245 0 177 -2 193 -23 241 -25 55 -69 102 -116 126 l-28 15 35
21 c76 44 117 153 117 307 0 157 -40 265 -117 318 -68 47 -135 57 -375 57
l-218 0 0 -755z m420 525 c36 -19 50 -70 50 -180 0 -165 -28 -200 -160 -200
l-70 0 0 201 0 202 79 -6 c43 -3 88 -10 101 -17z m7 -617 c48 -22 63 -63 70
-187 7 -127 -8 -207 -44 -236 -22 -17 -41 -20 -119 -20 l-94 0 0 230 0 230 76
0 c50 0 88 -6 111 -17z"/>
<path d="M2280 2085 l0 -755 325 0 325 0 0 110 0 110 -205 0 -205 0 0 220 0
220 165 0 165 0 0 105 0 105 -162 2 -163 3 -3 213 -2 212 205 0 205 0 0 105 0
105 -325 0 -325 0 0 -755z"/>
<path d="M3080 2085 l0 -755 325 0 326 0 -3 108 -3 107 -202 3 -203 2 0 220 0
220 160 0 160 0 0 105 0 105 -160 0 -160 0 0 215 0 215 205 0 205 0 0 105 0
105 -325 0 -325 0 0 -755z"/>
<path d="M3870 2086 l0 -756 120 0 120 0 2 308 3 307 66 -1 c78 -2 122 -22
146 -67 15 -27 19 -69 23 -272 4 -132 10 -248 14 -257 7 -16 24 -18 128 -18
111 0 120 1 112 18 -4 9 -10 125 -14 257 -8 280 -20 344 -79 405 -20 20 -45
42 -56 48 -20 11 -19 11 5 29 41 29 72 66 94 113 19 41 21 63 21 235 0 177 -2
193 -23 240 -30 65 -73 108 -136 137 -48 22 -65 23 -298 26 l-248 4 0 -756z
m399 531 c67 -23 76 -50 76 -215 0 -120 -3 -153 -17 -178 -22 -41 -80 -64
-158 -64 l-60 0 0 235 0 235 63 -1 c34 0 77 -5 96 -12z"/>
<path d="M5330 2085 l0 -755 115 0 115 0 0 310 0 310 155 0 155 0 0 110 0 110
-155 0 -155 0 2 228 3 227 198 3 197 2 0 105 0 105 -315 0 -315 0 0 -755z"/>
<path d="M6245 2818 c-7 -30 -235 -1463 -235 -1477 0 -7 36 -11 108 -11 l108
0 19 135 19 135 146 0 147 0 18 -117 c9 -65 19 -126 21 -135 5 -16 20 -18 125
-18 119 0 119 0 114 23 -7 31 -235 1462 -235 1476 0 8 -51 11 -175 11 -173 0
-175 0 -180 -22z m223 -635 c29 -197 53 -361 52 -365 0 -5 -49 -8 -110 -8 -60
0 -110 3 -110 8 -2 21 105 722 110 722 3 0 29 -161 58 -357z"/>
<path d="M7690 2735 l0 -104 123 -3 122 -3 3 -647 2 -648 115 0 115 0 2 648 3
647 123 3 122 3 0 104 0 105 -365 0 -365 0 0 -105z"/>
<path d="M4730 2085 l0 -105 220 0 220 0 0 105 0 105 -220 0 -220 0 0 -105z"/>
<path d="M20 645 l0 -625 4860 0 4860 0 0 625 0 625 -4860 0 -4860 0 0 -625z
m2217 24 c62 -171 61 -169 24 -169 -26 0 -32 5 -39 33 -8 31 -10 32 -62 32
-53 0 -55 -1 -64 -32 -8 -29 -13 -33 -41 -33 l-33 0 39 109 c64 184 64 183
101 179 32 -3 34 -5 75 -119z m535 111 c35 -10 37 -12 26 -36 -7 -15 -17 -23
-26 -19 -63 24 -95 13 -112 -41 -15 -44 -6 -95 20 -119 15 -14 31 -16 70 -13
47 5 50 4 50 -17 0 -13 -7 -26 -16 -29 -26 -10 -101 -7 -128 6 -88 39 -84 217
5 261 40 19 61 21 111 7z m1932 -32 c33 -90 86 -241 86 -245 0 -2 -14 -3 -32
-1 -27 2 -34 9 -42 36 -9 31 -11 32 -61 32 -50 0 -52 -1 -61 -32 -8 -27 -15
-34 -42 -36 -18 -2 -32 -1 -32 2 0 4 61 180 95 274 2 6 20 12 39 12 31 0 36
-4 50 -42z m3078 24 c5 -5 6 -16 3 -24 -5 -12 -20 -15 -60 -14 -73 1 -100 -24
-100 -93 0 -61 24 -91 72 -91 30 0 33 3 33 30 0 25 -4 30 -25 30 -20 0 -25 5
-25 25 0 24 3 25 55 25 l55 0 0 -74 c0 -85 -1 -86 -86 -86 -75 0 -108 19 -129
75 -45 117 30 224 149 211 27 -3 53 -9 58 -14z m312 -24 c33 -90 86 -241 86
-245 0 -2 -14 -3 -32 -1 -27 2 -34 9 -42 36 -9 31 -11 32 -61 32 -50 0 -52 -1
-61 -32 -8 -27 -15 -34 -42 -36 -18 -2 -32 -1 -32 2 0 4 61 180 95 274 2 6 20
12 39 12 31 0 36 -4 50 -42z m-6764 -71 c0 -114 6 -127 57 -127 45 0 53 21 53
134 l0 96 30 0 30 0 0 -100 c0 -148 -23 -180 -126 -180 -37 0 -51 6 -75 29
-29 29 -29 31 -29 140 l0 111 30 0 30 0 0 -103z m457 3 l58 -101 3 101 c3 99
3 100 27 100 l25 0 0 -140 0 -140 -37 0 c-38 0 -39 1 -98 106 l-60 106 -3
-106 c-3 -105 -3 -106 -27 -106 l-25 0 0 140 0 140 39 0 c39 0 40 0 98 -100z
m1313 75 c0 -23 -3 -25 -50 -25 -49 0 -50 -1 -50 -30 0 -29 2 -30 45 -30 41 0
45 -2 45 -25 0 -23 -4 -25 -45 -25 -45 0 -45 0 -45 -35 l0 -35 50 0 c47 0 50
-2 50 -25 0 -25 -1 -25 -80 -25 l-80 0 0 140 0 140 80 0 c79 0 80 0 80 -25z
m315 0 c33 -32 33 -78 0 -111 l-26 -26 34 -46 c52 -74 52 -72 15 -72 -30 0
-37 6 -66 55 -18 30 -40 55 -48 55 -10 0 -14 -14 -14 -55 0 -54 0 -55 -30 -55
l-30 0 0 140 0 140 70 0 c62 0 74 -3 95 -25z m235 -82 l34 -108 33 108 c33
106 34 107 64 107 21 0 30 -4 27 -12 -3 -7 -24 -70 -47 -140 l-43 -128 -33 0
-32 0 -47 134 c-25 73 -46 136 -46 140 0 3 13 6 28 6 28 0 30 -4 62 -107z
m448 85 c-3 -20 -10 -23 -55 -26 -51 -3 -53 -4 -53 -33 0 -28 1 -29 50 -29 47
0 50 -2 50 -25 0 -23 -3 -25 -50 -25 l-50 0 0 -35 0 -35 55 0 c52 0 55 -1 55
-25 0 -25 -1 -25 -85 -25 l-85 0 0 140 0 140 86 0 c83 0 85 -1 82 -22z m322 5
c0 -10 -29 -60 -65 -111 -36 -51 -65 -95 -65 -97 0 -3 29 -5 65 -5 63 0 65 -1
65 -25 l0 -25 -105 0 c-93 0 -105 2 -105 18 0 9 30 60 66 112 l65 95 -60 3
c-57 3 -61 4 -61 27 0 25 1 25 100 25 89 0 100 -2 100 -17z m838 -5 c-3 -20
-10 -23 -50 -26 -46 -3 -48 -5 -48 -33 0 -28 2 -29 45 -29 41 0 45 -2 45 -25
0 -23 -4 -25 -45 -25 -45 0 -45 0 -45 -35 l0 -35 50 0 c47 0 50 -2 50 -25 0
-25 -1 -25 -80 -25 l-80 0 0 140 0 140 81 0 c78 0 80 -1 77 -22z m284 -83 l58
-100 0 103 0 102 30 0 30 0 0 -141 0 -140 -42 3 c-42 3 -42 3 -98 100 -30 53
-57 99 -60 101 -3 3 -3 -42 -2 -99 l4 -104 -31 0 -31 0 0 141 0 140 42 -3 c42
-3 42 -3 100 -103z m638 80 c0 -22 -4 -25 -35 -25 l-35 0 0 -115 0 -115 -35 0
-35 0 0 115 0 115 -35 0 c-31 0 -35 3 -35 25 l0 25 105 0 105 0 0 -25z m190
-78 c0 -114 6 -127 55 -127 49 0 55 13 55 127 l0 103 30 0 30 0 0 -111 c0
-109 0 -111 -29 -140 -26 -25 -37 -29 -86 -29 -49 0 -60 4 -86 29 -29 29 -29
31 -29 140 l0 111 30 0 30 0 0 -103z m570 -12 l0 -115 60 0 c57 0 60 -1 60
-25 0 -25 -1 -25 -90 -25 l-90 0 0 140 0 140 30 0 30 0 0 -115z m310 12 c0
-114 6 -127 57 -127 45 0 53 21 53 134 l0 96 30 0 30 0 0 -100 c0 -148 -23
-180 -126 -180 -37 0 -51 6 -75 29 -29 29 -29 31 -29 140 l0 111 30 0 30 0 0
-103z m1204 92 c29 -14 51 -59 41 -89 -4 -11 -16 -29 -27 -40 l-21 -19 36 -56
c21 -30 37 -57 37 -60 0 -3 -13 -5 -29 -5 -25 0 -35 8 -63 55 -45 74 -68 74
-68 0 0 -54 0 -55 -30 -55 l-30 0 0 140 0 140 65 0 c35 0 75 -5 89 -11z"/>
<path d="M2142 681 c-17 -55 -15 -61 18 -61 17 0 30 5 30 11 0 21 -23 89 -30
89 -4 0 -12 -17 -18 -39z"/>
<path d="M4641 692 c-7 -24 -15 -50 -18 -58 -4 -11 4 -14 32 -14 40 0 39 -4
10 80 l-12 35 -12 -43z"/>
<path d="M8031 692 c-7 -24 -15 -50 -18 -58 -4 -11 4 -14 32 -14 40 0 39 -4
10 80 l-12 35 -12 -43z"/>
<path d="M3310 694 c0 -32 2 -35 26 -32 55 6 59 68 4 68 -28 0 -30 -3 -30 -36z"/>
<path d="M8360 695 c0 -32 2 -35 30 -35 19 0 33 7 40 21 15 27 -3 49 -41 49
-26 0 -29 -3 -29 -35z"/>
</g>
</svg>
